<svg xmlns="http://www.w3.org/2000/svg" viewBox="0 0 512 512" role="img" aria-label="通信雷达站图标">
  <defs>
    <radialGradient id="bg" cx="50%" cy="45%" r="70%">
      <stop offset="0" stop-color="#0b3d78"/>
      <stop offset="0.5" stop-color="#062a63"/>
      <stop offset="1" stop-color="#03123a"/>
    </radialGradient>
    <linearGradient id="scan" x1="0" y1="1" x2="1" y2="0">
      <stop offset="0" stop-color="#1a7cff"/>
      <stop offset="0.55" stop-color="#12e7e7"/>
      <stop offset="1" stop-color="#45ff7d"/>
    </linearGradient>
    <linearGradient id="tower" x1="0" y1="1" x2="1" y2="0">
      <stop offset="0" stop-color="#82eaff"/>
      <stop offset="0.45" stop-color="#ffffff"/>
      <stop offset="1" stop-color="#eaf6ff"/>
    </linearGradient>
    <filter id="glow" x="-45%" y="-45%" width="190%" height="190%">
      <feGaussianBlur stdDeviation="6" result="blur"/>
      <feMerge>
        <feMergeNode in="blur"/>
        <feMergeNode in="SourceGraphic"/>
      </feMerge>
    </filter>
  </defs>
  <rect width="512" height="512" rx="94" fill="url(#bg)"/>
  <g opacity=".45" stroke="#118bff" stroke-width="2">
    <path d="M0 410c74-55 165-83 256-83s182 28 256 83"/>
    <path d="M18 450c69-64 151-96 238-96s169 32 238 96"/>
    <path d="M68 386l73 75M141 340l42 138M256 327v171M371 340l-42 138M444 386l-73 75"/>
    <path d="M66 386c110-42 270-42 380 0"/>
  </g>
  <g fill="#16d8ff" filter="url(#glow)" opacity=".9">
    <circle cx="90" cy="404" r="7"/>
    <circle cx="160" cy="374" r="8"/>
    <circle cx="256" cy="354" r="6"/>
    <circle cx="352" cy="374" r="8"/>
    <circle cx="422" cy="404" r="7"/>
  </g>
  <g fill="none" stroke-linecap="round" filter="url(#glow)">
    <path d="M76 250A180 180 0 0 1 436 250" stroke="url(#scan)" stroke-width="11"/>
    <path d="M124 250A132 132 0 0 1 388 250" stroke="#24d8ff" stroke-width="6" opacity=".72"/>
    <path d="M172 250A84 84 0 0 1 340 250" stroke="#20f2d3" stroke-width="5" opacity=".82"/>
    <path d="M256 88v112M62 250h116M334 250h116" stroke="#1ceeff" stroke-width="4" opacity=".55"/>
  </g>
  <path d="M258 250L410 105A214 214 0 0 1 468 250Z" fill="#23ff82" opacity=".30" filter="url(#glow)"/>
  <path d="M258 250L410 105" stroke="#baffd5" stroke-width="5" stroke-linecap="round"/>
  <g fill="#65ff98" filter="url(#glow)">
    <circle cx="407" cy="105" r="13"/>
    <circle cx="142" cy="188" r="12"/>
    <circle cx="392" cy="304" r="10"/>
  </g>
  <g stroke="url(#tower)" stroke-width="15" stroke-linecap="round" stroke-linejoin="round" filter="url(#glow)">
    <path d="M256 246L194 442"/>
    <path d="M256 246l62 196"/>
    <path d="M216 370l80-80"/>
    <path d="M216 370l86 54"/>
    <path d="M296 370l-86 54"/>
  </g>
  <circle cx="256" cy="246" r="22" fill="#fff" filter="url(#glow)"/>
</svg>
